<svg width="14" height="13" viewBox="0 0 14 13" fill="none" xmlns="http://www.w3.org/2000/svg">
<path d="M11 10.4794C11.165 10.4931 11.3319 10.5 11.5004 10.5C12.1993 10.5 12.8703 10.3805 13.494 10.1608C13.4982 10.1078 13.5004 10.0541 13.5004 10C13.5004 8.89543 12.605 8 11.5004 8C11.082 8 10.6936 8.12849 10.3725 8.34815M11 10.4794C11 10.4863 11 10.4931 11 10.5C11 10.65 10.9917 10.7981 10.9757 10.9438C9.80448 11.6158 8.44711 12 7 12C5.55289 12 4.19551 11.6158 3.02434 10.9438C3.00826 10.7981 3 10.65 3 10.5C3 10.4932 3.00002 10.4863 3.00005 10.4795M11 10.4794C10.996 9.69506 10.7663 8.96408 10.3725 8.34815M10.3725 8.34815C9.66188 7.23679 8.41698 6.5 7 6.5C5.5832 6.5 4.33844 7.23661 3.62779 8.34774M3.62779 8.34774C3.30682 8.12833 2.91864 8 2.50049 8C1.39592 8 0.500488 8.89543 0.500488 10C0.500488 10.0541 0.50264 10.1078 0.506862 10.1608C1.13062 10.3805 1.8016 10.5 2.50049 10.5C2.66872 10.5 2.83533 10.4931 3.00005 10.4795M3.62779 8.34774C3.2338 8.96377 3.00399 9.69493 3.00005 10.4795M9 2.5C9 3.60457 8.10457 4.5 7 4.5C5.89543 4.5 5 3.60457 5 2.5C5 1.39543 5.89543 0.5 7 0.5C8.10457 0.5 9 1.39543 9 2.5ZM13 4.5C13 5.32843 12.3284 6 11.5 6C10.6716 6 10 5.32843 10 4.5C10 3.67157 10.6716 3 11.5 3C12.3284 3 13 3.67157 13 4.5ZM4 4.5C4 5.32843 3.32843 6 2.5 6C1.67157 6 1 5.32843 1 4.5C1 3.67157 1.67157 3 2.5 3C3.32843 3 4 3.67157 4 4.5Z" stroke="#939393" stroke-linecap="round" stroke-linejoin="round"/>
</svg>
