<svg width="14" height="14" viewBox="0 0 14 14" fill="none" xmlns="http://www.w3.org/2000/svg">
<path d="M9.39363 8.57974C9.46319 8.8752 9.5 9.1833 9.5 9.5C9.5 11.7091 7.70914 13.5 5.5 13.5V10.3002M9.39363 8.57974C11.8829 6.76074 13.5 3.81916 13.5 0.5C10.181 0.500141 7.23965 2.11724 5.42081 4.6065M9.39363 8.57974C8.25459 9.41206 6.93292 10.0093 5.5 10.3002M5.42081 4.6065C5.12518 4.53685 4.81689 4.5 4.5 4.5C2.29086 4.5 0.5 6.29086 0.5 8.5H3.70048M5.42081 4.6065C4.58857 5.74551 3.99134 7.06713 3.70048 8.5M5.5 10.3002C5.43106 10.3142 5.36186 10.3275 5.29242 10.3401C4.6878 9.86065 4.13994 9.31279 3.66053 8.70818C3.67313 8.63853 3.68645 8.56914 3.70048 8.5M2.20794 10.0938C1.47476 10.6408 1 11.5149 1 12.5C1 12.6579 1.0122 12.813 1.03571 12.9643C1.18703 12.9878 1.34209 13 1.5 13C2.48505 13 3.35922 12.5252 3.90616 11.7921M10 5C10 5.55228 9.55228 6 9 6C8.44771 6 8 5.55228 8 5C8 4.44772 8.44771 4 9 4C9.55228 4 10 4.44772 10 5Z" stroke="#939393" stroke-linecap="round" stroke-linejoin="round"/>
</svg>
