<svg width="14" height="14" viewBox="0 0 14 14" fill="none" xmlns="http://www.w3.org/2000/svg">
<path d="M0.5 3.5C0.5 9.02285 4.97715 13.5 10.5 13.5H12C12.8284 13.5 13.5 12.8284 13.5 12V11.0856C13.5 10.7414 13.2658 10.4414 12.9319 10.358L9.98311 9.62078C9.69036 9.54759 9.38227 9.65698 9.20121 9.89839L8.5544 10.7608C8.36668 11.0111 8.04201 11.1218 7.74823 11.0142C5.5436 10.2066 3.79344 8.45641 2.98584 6.25177C2.87823 5.95799 2.98891 5.63332 3.2392 5.4456L4.10161 4.79879C4.34302 4.61773 4.45241 4.30964 4.37922 4.01689L3.64202 1.0681C3.55856 0.734223 3.25857 0.5 2.91442 0.5H2C1.17157 0.5 0.5 1.17157 0.5 2V3.5Z" stroke="#939393" stroke-linecap="round" stroke-linejoin="round"/>
</svg>
