<svg width="14" height="14" viewBox="0 0 14 14" fill="none" xmlns="http://www.w3.org/2000/svg">
<path d="M0.5 7.50623C0.5 8.57362 1.24894 9.5027 2.30497 9.65797C3.02905 9.76444 3.761 9.84665 4.5 9.90376V13L7.0741 10.4259C7.34974 10.1503 7.72193 9.99436 8.11151 9.98107C9.32435 9.93968 10.5201 9.83079 11.695 9.65805C12.751 9.50279 13.5 8.5737 13.5 7.5063V3.4937C13.5 2.42631 12.751 1.49722 11.695 1.34196C10.1627 1.11668 8.59507 1 7.00019 1C5.40517 1 3.83741 1.1167 2.30498 1.34202C1.24894 1.49729 0.5 2.42637 0.5 3.49376V7.50623Z" stroke="#939393" stroke-linecap="round" stroke-linejoin="round"/>
</svg>
